<?xml version="1.0" encoding="UTF-8" standalone="no"?>
<!-- Created with Inkscape (http://www.inkscape.org/) -->

<svg
   version="1.1"
   id="svg1"
   width="969.25696"
   height="359.66599"
   viewBox="0 0 969.25698 359.66599"
   xml:space="preserve"
   xmlns="http://www.w3.org/2000/svg"
   xmlns:svg="http://www.w3.org/2000/svg"><defs
     id="defs1" /><g
     id="g1"
     transform="translate(223.64936,-370.2004)"><g
       id="g15"
       transform="matrix(2.3855057,0,0,2.3855057,-454.13116,-683.06164)"
       style="fill:#000000;fill-opacity:1;stroke-width:0.585624"><path
         d="m 404.11581,462.86564 c -1.33665,2.26203 -2.77636,4.62618 -4.31866,7.09384 -1.43946,2.46767 -2.77585,4.83181 -4.00968,7.09383 -1.43947,2.36484 -2.77865,4.78136 -4.01248,7.24902 -1.23383,2.36485 -2.5702,4.78136 -4.00968,7.24902 l -5.55036,10.33318 c -1.74793,3.29022 -3.70293,6.83644 -5.86213,10.64075 -2.05639,3.70149 -3.959,7.04384 -5.70694,10.0256 l -33.15815,-59.53285 h -26.52709 c 2.98176,5.24378 5.91216,10.48876 8.7911,15.73255 2.87894,5.24379 5.80934,10.43499 8.7911,15.57595 2.05639,3.49586 4.05955,7.04347 6.01312,10.64215 2.05639,3.59867 4.11473,7.14629 6.17111,10.64215 l 29.61123,52.5928 45.33679,-82.67379 h 50.30835 c 2.57048,0 4.78173,0.92443 6.63247,2.77518 1.95358,1.85075 2.93036,4.2163 2.93036,7.09524 v 5.85933 c 0,2.67331 -0.97678,5.03885 -2.93036,7.09523 -1.85074,2.05639 -4.06199,3.08416 -6.63247,3.08416 h -52.28383 v 58.60732 h 22.20983 v -36.55268 h 13.88009 l 22.67259,36.55268 h 26.21811 l -23.13396,-37.78719 c 3.39303,-1.23383 6.47773,-2.92839 9.25386,-5.08759 2.77612,-2.15921 5.14167,-4.62809 7.09524,-7.40421 1.95357,-2.77612 3.44424,-5.70652 4.47244,-8.7911 1.13101,-3.1874 1.69586,-6.4264 1.69586,-9.71662 v -5.85933 c 0,-4.52405 -0.87346,-8.73986 -2.62139,-12.64699 -1.64511,-3.90713 -3.90731,-7.30045 -6.78625,-10.17939 -2.87894,-2.98176 -6.27086,-5.29634 -10.17799,-6.94145 -3.90714,-1.74793 -8.07337,-2.62139 -12.4946,-2.62139 h -41.00695 c -0.78492,-0.0934 -1.57093,-0.1454 -2.35576,-0.1454 z"
         style="font-size:154.229px;line-height:1.1;font-family:Movement;-inkscape-font-specification:Movement;letter-spacing:9.03684px;fill:#000000;fill-opacity:1;stroke-width:2.80028;paint-order:stroke markers fill"
         id="path14" /><path
         d="m 279.47075,463.01839 v 107.03516 h 22.66992 V 463.01839 Z"
         style="font-size:154.229px;line-height:1.1;font-family:Movement;-inkscape-font-specification:Movement;letter-spacing:9.03684px;fill:#000000;fill-opacity:1;stroke-width:2.80028;paint-order:stroke markers fill"
         id="path15" /><text
         xml:space="preserve"
         style="font-style:normal;font-variant:normal;font-weight:800;font-stretch:normal;font-size:15.2707px;line-height:1.1;font-family:Lifta;-inkscape-font-specification:'Lifta Ultra-Bold';text-align:start;letter-spacing:0px;writing-mode:lr-tb;direction:ltr;text-anchor:start;fill:#000000;fill-opacity:1;stroke-width:1.10906;paint-order:stroke markers fill"
         x="489.11923"
         y="466.92966"
         id="text15-6"><tspan
           id="tspan15-1"
           style="font-size:15.2707px;fill:#000000;fill-opacity:1;stroke-width:1.10906"
           x="489.11923"
           y="466.92966">©</tspan></text></g><g
       id="g23"
       transform="translate(0,-928)"
       style="fill:#000000"><path
         d="m -218.10995,1518.3748 c -2.92678,0.3917 -5.20098,2.5544 -5.53941,5.2676 v 0.9142 53.9059 6.2803 c 1.04051,26.9148 15.85573,51.4005 39.2143,64.8117 7.40154,4.0272 15.40518,6.832 23.70149,8.3059 h 29.77818 56.048627 1.19806 c 6.042103,-0.8066 8.229272,-6.6343 8.886486,-9.0779 l 0.05615,-0.7409 4.93419,-63.8606 1.636515,-21.1141 c -0.345733,-0.9966 0.953284,-3.8467 1.928918,-5.7643 6.302599,0.1646 12.510417,1.5648 18.267092,4.1191 7.697914,3.3404 24.478718,16.7647 27.987196,37.5474 0.2496992,1.9355 0.3800668,3.8844 0.3896185,5.8358 v 0.039 c 1.318114,14.0065 1.8199004,27.4979 2.7541848,41.5546 0.00316,6.3187 4.2411766,11.4448 9.4793301,11.4679 h 0.071638 28.9197826 29.315035 26.42494 0.159861 c 3.424107,-0.058 6.167856,-2.8556 6.175433,-6.2804 -0.02646,-1.8613 -0.864009,-3.6181 -2.303442,-4.7983 l -0.358317,-0.3272 -86.3579191,-78.2865 -15.5869779,-14.1295 -2.198509,-1.9946 -15.45097,-14.0061 -1.982337,-1.797 c -3.896961,-3.1539 -8.565956,-5.2369 -13.536675,-6.0397 l -4.884806,-0.333 -6.613919,-0.4505 -12.245984,-0.8341 -22.015582,-1.4945 -10.572409,-0.7158 -92.61986,-6.299 -21.81179,-1.482 z"
         style="display:inline;vector-effect:non-scaling-stroke;fill:#000000;fill-opacity:1;stroke:none;stroke-width:0.440496;-inkscape-stroke:hairline;paint-order:stroke markers fill"
         id="path20" /><path
         d="m -144.70484,1298.2004 c -37.48119,0.5951 -69.27034,27.6986 -75.78553,64.614 -0.26854,1.6394 -0.48481,3.2871 -0.64841,4.9404 v 5.4406 11.7148 115.3272 0.3332 c 0.0908,3.2251 2.71164,5.8047 5.9408,5.8483 l 3.50151,-1.1114 92.82364,-29.4385 17.10608,-5.4221 41.956202,-13.3081 8.324531,-2.637 c 6.663324,-3.0918 9.744854,-9.4788 13.734208,-15.3275 l 17.853349,-26.1902 5.508499,-8.0713 3.742352,-5.4901 63.62618,-93.3053 1.994651,-2.9272 c 0.07157,-0.2904 0.124301,-0.5891 0.142565,-0.8891 -0.04711,-1.0445 -0.462224,-2.038 -1.160421,-2.8159 -0.617762,-0.6418 -1.410184,-1.0875 -2.278839,-1.2846 h -2.241834 -76.934227 -7.63284 -31.556688 -76.705668 z"
         style="display:inline;fill:#000000;fill-opacity:1;stroke:none;stroke-width:1.95402;stroke-dasharray:none;stroke-opacity:1;paint-order:stroke markers fill"
         id="path4" /><path
         d="m 69.185757,1298.2004 c -2.438353,0.907 -4.51553,2.6086 -5.909993,4.8417 l -1.445029,6.5521 -25.480077,115.2221 -4.897074,22.1576 -5.002182,22.6085 -1.673514,7.5649 c -0.604661,3.9941 -0.521019,8.16 0.247505,12.2769 l 9.182834,18.7363 1.704454,3.4706 12.165763,24.8317 c 19.606329,35.4563 33.439984,74.4569 53.658666,109.4918 1.16277,1.1424 2.72385,1.7885 4.35372,1.8033 1.00623,-0.1542 1.95961,-0.5511 2.77906,-1.1544 0.71463,-0.5725 1.41823,-1.1568 2.11196,-1.7538 16.91278,-14.5756 26.79301,-35.6823 27.15356,-58.0063 v -2.4084 -219.1801 c -4.05224,-31.3959 -26.62869,-57.2537 -57.191058,-65.5033 -3.874546,-0.8139 -7.805248,-1.3318 -11.758144,-1.5501 z"
         style="display:inline;vector-effect:non-scaling-stroke;fill:#000000;fill-opacity:1;stroke:none;stroke-width:0.473692;-inkscape-stroke:hairline;paint-order:stroke markers fill"
         id="path5" /></g></g></svg>
